<?xml version="1.0" standalone="no"?><!DOCTYPE svg PUBLIC "-//W3C//DTD SVG 1.1//EN" "http://www.w3.org/Graphics/SVG/1.1/DTD/svg11.dtd"><svg class="icon" height="512" viewBox="0 0 1537 1024" version="1.1" xmlns="http://www.w3.org/2000/svg"><path d="M951.50997 351.552955c3.209552-89.47009 2.873313-87.46794 2.842746-87.009433 0.152836-1.83403 6.602507-75.974687-5.670209-146.798806-12.425552-71.725851-93.184-91.487522-93.184-91.487522l-4.157134-0.168119-85.068418-3.224836v0.42794l-84.243104 3.194269-4.141851 0.183403s-80.773731 19.761672-93.199284 91.487522c-12.272716 70.824119-5.823045 144.949493-5.654925 146.783523-0.030567-0.42794-0.366806-2.460657 2.842746 86.994149 3.392955 94.345552-5.960597 327.007522-4.676776 355.282149 1.283821 28.24406-2.109134 88.109851 3.530508 103.913075 5.654925 15.818507 24.851104 92.633791 24.851104 92.633791s31.086806 59.437851 161.532179 50.573373v-0.351523c129.711761 8.558806 160.676299-50.619224 160.676299-50.619223s19.211463-76.815284 24.866388-92.649075c5.639642-15.78794 2.246687-75.669015 3.515224-103.913075 1.283821-28.24406-8.054448-260.921313-4.661493-355.251582z" fill="#D14C32" /><path d="M873.242746 270.274866c-30.414328-15.818507-106.985075-16.949493-106.985074-16.949493v-0.122269s-76.570746 1.130985-106.985075 16.949493c-30.414328 15.803224-41.60191 23.33803-39.50806 33.883702 2.109134 10.530388 24.820537 115.589731 24.820538 118.203223 0 2.659343 2.139701 7.168 13.999761 3.790329 11.844776-3.408239 107.672836-7.534806 107.672836-7.534806v0.137552s95.82806 4.141851 107.688119 7.519522c11.844776 3.408239 13.969194-1.130985 13.969194-3.759761s22.726687-107.688119 24.835821-118.218507c2.093851-10.560955-9.093731-18.095761-39.50806-33.898985z" fill="#121215" /><path d="M927.407761 321.490149s-0.366806 120.862567 0 156.62615-0.366806 83.952716-2.995582 116.720716c-2.659343 32.768-8.665791 179.994746-8.665791 179.994746v2.995582s-18.81409-51.215284-22.589134-90.738627c-8.283701-38.789731-4.52394-134.434388 0-192.802388 1.879881-57.970627 30.490746-162.647881 34.250507-172.796179z" fill="#101114" /><path d="M880.074507 737.448119c-2.170269-13.541254-4.050149-9.59809-4.585074-10.729074-0.550209-1.115701-14.213731 2.537075-19.746388 3.958448-44.597493 7.916896-89.47009 5.93003-89.47009 5.930029v-0.137552s-44.872597 1.986866-89.470089-5.93003c-5.532657-1.40609-19.196179-5.104716-19.746388-3.973731-0.534925 1.130985-2.414806-2.812179-4.585075 10.744358s-13.52597 95.461254-12.700657 96.301851c0.81003 0.840597 27.831403 16.934209 75.684299 24.560716 10.545672 0.489075 50.81791 2.384239 50.81791 2.26197v0.122269c0 0.152836 40.272239-1.757612 50.817911-2.26197 47.852896-7.611224 74.874269-23.704836 75.684298-24.560716 0.81003-0.840597-10.545672-82.714746-12.700657-96.286568z" fill="#131417" /><path d="M924.152358 352.118448l11.982329 6.923462v11.584956h-11.982329z" fill="#0D0E13" /><path d="M846.802149 33.700299a12.135164 12.135164 0 0 0-3.392955-1.635344c-5.318687-1.558925-3.087284-1.069851 3.392955 1.635344z" fill="#C2C6C1" /><path d="M930.938269 119.257791c-8.314269-50.130149-64.93994-77.487761-84.13612-85.557492 19.287881 13.159164 32.98197 87.116418 43.298388 134.113432 10.927761 49.702209 16.995343 129.803463 16.995344 129.803463s23.276896 4.233552 34.204656 67.125493c8.283701 39.523343 0.764179-178.466388-10.362268-245.484896z" fill="#D8684A" /><path d="M689.671642 32.477612a12.043463 12.043463 0 0 0-3.377672 1.635343c6.480239-2.705194 8.696358-3.209552 3.377672-1.635343z" fill="#C2C6C1" /><path d="M602.157851 119.655164c-11.141731 67.018507-18.676537 285.023522-10.392836 245.500179 10.927761-62.89194 34.21994-67.140776 34.21994-67.140776s6.067582-80.101254 16.98006-129.803463c10.331701-46.997015 24.025791-120.969552 43.313672-134.098149-19.180896 8.039164-75.806567 35.41206-84.120836 85.542209z" fill="#D8684A" /><path d="M889.519761 552.211104l36.711164-27.709134v32.783284l-36.711164 23.154627zM642.552358 812.093134c-1.589493 12.364418-2.613493 21.244179-2.338388 21.519284 0.81003 0.840597 27.846687 16.934209 75.684299 24.560716 10.545672 0.489075 50.81791 2.384239 50.81791 2.26197v0.122269c0 0.152836 40.272239-1.757612 50.833194-2.26197 47.837612-7.611224 74.858985-23.704836 75.684299-24.560716 0.412657-0.42794-2.506507-23.200478-5.685493-46.721911l-244.995821 25.080358z" fill="#202226" /><path d="M638.089552 391.519522l234.526567-55.525253 35.534329-11.340418c2.216119-10.331701 3.820896-18.019343 4.325253-20.495284 2.093851-10.545672-9.093731-18.095761-39.508059-33.898985-30.414328-15.818507-106.985075-16.949493-106.985075-16.949492v-0.122269s-76.555463 1.130985-106.985074 16.949492c-30.414328 15.803224-41.60191 23.33803-39.50806 33.883702 1.390806 6.938746 11.69194 54.837493 18.600119 87.498507z" fill="#212428" /><path d="M605.963463 321.902806s0.351522 120.862567 0 156.626149c-0.38209 35.778866 0.366806 83.952716 2.995582 116.736 2.64406 32.752716 8.665791 179.964179 8.665791 179.964179v3.010866s18.81409-51.215284 22.589134-90.75391c8.283701-38.789731 4.52394-134.419104 0-192.771821-1.879881-58.001194-30.490746-162.647881-34.250507-172.811463z" fill="#101114" /><path d="M951.50997 351.82806c3.209552-89.47009 2.873313-87.46794 2.842746-87.009433 0.152836-1.83403 6.602507-75.974687-5.670209-146.798806-12.425552-71.725851-93.184-91.487522-93.184-91.487522l-4.157134-0.16812-85.068418-3.209552v0.412657l-84.243104 3.178985-4.141851 0.183403s-80.773731 19.761672-93.199284 91.487522c-12.272716 70.824119-5.823045 144.949493-5.654925 146.783522-0.030567-0.42794-0.366806-2.445373 2.842746 87.024717 3.392955 94.314985-5.960597 327.007522-4.676776 355.251582s-2.109134 88.125134 3.530508 103.913075c5.654925 15.818507 24.851104 92.633791 24.851104 92.633791s31.086806 59.453134 161.532179 50.573373v-0.351523c129.711761 8.558806 160.676299-50.619224 160.676299-50.619224s19.211463-76.815284 24.866388-92.633791c5.639642-15.818507 2.246687-75.684299 3.515224-103.913074 1.283821-28.24406-8.054448-260.936597-4.661493-355.251582z m-5.639642 460.647164c-15.818507 92.985313-38.789731 108.054925-64.771821 121.993552-25.966806 13.923343-114.840836 15.78794-114.840835 15.78794v0.38209c-9.078448-0.21397-89.485373-2.659343-114.000239-15.772657-25.966806-13.938627-48.93803-28.992955-64.756537-121.978268-15.803224-93.015881 6.220418-130.68991 3.392955-210.317374-2.827463-79.627463-2.521791-284.702567-1.696478-307.84191 0.840597-23.108776-5.624358-183.555821 16.689672-206.679881 22.298746-23.16991 54.042746-54.898627 72.841552-56.044895 10.744358-0.64191 24.178627-0.917015 33.746149-1.008717v-0.550208h54.65409v-0.38209h53.798209v0.534925a736.974328 736.974328 0 0 1 33.746149 1.008717c18.783522 1.130985 50.55809 32.890269 72.856836 56.044895 22.31403 23.154627 15.833791 183.555821 16.674388 206.695164 0.840597 23.139343 1.130985 228.199164-1.696478 307.811344-2.85803 79.65803 19.165612 117.301493 3.362388 210.317373z" fill="#9E4A36" /><path d="M610.09003 880.089791s14.687522 31.254925 38.025552 39.523343c23.33803 8.298985 40.287522 12.624239 40.287522 12.624239s-30.12394-0.38209-45.743761-9.231283c-15.619821-8.849194-33.501612-22.787821-32.569313-42.916299z" fill="#9E4A36" /><path d="M678.713313 32.019104s-32.569313 15.803224-42.350806 26.547583c-9.796776 10.713791-24.270328 29.191642-24.652417 31.254925-0.366806 2.063284 0 9.032597 0 9.032597s58.169313-63.090627 67.003223-66.835105z" fill="#FEFDF8" /><path d="M766.54806 23.139343h0.137552v-0.290388l-0.137552 0.290388zM841.376478 34.43391c-0.290388-3.240119-16.81194-8.054448-20.892657-8.910328-3.989015-0.81003-51.016597-2.292537-53.813493-2.384239l-0.015283 0.38209c-3.087284 0.106985-49.824478 1.589493-53.782926 2.414806-4.096 0.840597-20.617552 5.639642-20.892656 8.895045s2.827463 4.799045 6.770627 3.102567 9.460537-6.510806 13.694089-7.488955c4.248836-0.962866 54.378985-2.68991 54.378985-2.689911l-0.015283-0.382089c3.912597 0.137552 50.023164 1.727045 54.088597 2.68991 4.233552 0.962866 9.750925 5.76191 13.694089 7.473672 3.973731 1.681194 7.076299 0.122269 6.785911-3.102568z" fill="#1D2021" /><path d="M595.509493 359.439284s-32.752716 13.006328-34.724299 25.982089-1.681194 14.397134 0 14.397134 36.43606-18.355582 36.43606-18.355582v-22.023641h-1.711761z" fill="#D14C32" /><path d="M561.060299 402.783522l-0.275105-2.965015 36.43606-18.355582v2.552359z" fill="#0D0E13" /><path d="M609.218866 352.531104l-11.997612 6.90818v11.569671h11.997612z" fill="#0D0E13" /><path d="M643.836179 552.608478l-36.711164-27.678568v32.768l36.711164 23.139344z" fill="#202226" /><path d="M652.165731 737.448119c2.170269-13.541254 4.065433-9.59809 4.600359-10.729074 0.534925-1.115701 14.183164 2.537075 19.731104 3.958448 44.597493 7.916896 89.47009 5.93003 89.47009 5.930029v-0.137552s44.887881 1.986866 89.470089-5.93003c5.54794-1.40609 19.196179-5.104716 19.731105-3.973731 0.550209 1.130985 2.445373-2.812179 4.600358 10.744358 2.170269 13.556537 13.52597 95.461254 12.700657 96.301851-0.81003 0.840597-27.831403 16.934209-75.684299 24.560716-10.560955 0.489075-50.81791 2.384239-50.81791 2.26197v0.122269c0 0.152836-40.272239-1.757612-50.817911-2.26197-47.852896-7.611224-74.874269-23.704836-75.699582-24.560716-0.794746-0.840597 10.560955-82.714746 12.71594-96.286568zM660.617552 270.274866c30.414328-15.818507 106.985075-16.918925 106.985075-16.918926v-0.152836s76.570746 1.130985 106.969791 16.949493c30.414328 15.803224 41.617194 23.33803 39.50806 33.883702-2.093851 10.530388-24.820537 115.589731-24.820538 118.203223 0 2.659343-2.139701 7.168-13.984477 3.790329-11.844776-3.408239-107.672836-7.534806-107.672836-7.534806v0.137552s-95.843343 4.141851-107.68812 7.519522c-11.86006 3.408239-13.984478-1.130985-13.984477-3.759761s-22.711403-107.688119-24.820537-118.218507c-2.109134-10.560955 9.093731-18.095761 39.508059-33.898985z" fill="#343C3E" /><path d="M647.305552 277.488716c-20.739821 11.432119-28.45803 18.172179-26.685134 27.067224 2.093851 10.515104 24.820537 115.589731 24.820537 118.233791 0 2.628776 2.139701 7.137433 13.984478 3.759762 2.68991-0.779463 9.674507-1.589493 18.875224-2.384239-14.305433-35.060537-26.257194-112.808119-30.995105-146.676538zM886.890985 277.320597c20.739821 11.401552 28.442746 18.156896 26.685134 27.067224-2.109134 10.530388-24.835821 115.589731-24.83582 118.218507 0 2.628776-2.124418 7.168-13.969195 3.759762-2.68991-0.764179-9.689791-1.589493-18.890507-2.353672 14.320716-35.136955 26.257194-112.85397 31.010388-146.691821z" fill="#2E3436" /><path d="M907.554388 290.800716c-5.991164-5.670209-17.02591-11.951761-34.158806-20.862089-30.414328-15.818507-106.985075-16.949493-106.985075-16.949493v0.152836h-0.21397v0.061134c-6.144 0.122269-77.44191 1.818746-106.54185 16.949493-17.148179 8.895045-28.182925 15.191881-34.17409 20.86209l27.05194 21.198328s54.959761-8.696358 114.321194-9.674508v-0.198686c59.00991 1.054567 113.511164 6.78591 113.511165 6.78591l27.189492-18.325015z" fill="#202226" /><path d="M854.642627 31.606448s32.584597 15.78794 42.350806 26.532298c9.796776 10.744358 24.300896 29.176358 24.652418 31.270209 0.38209 2.078567 0 9.032597 0 9.032597s-58.138746-63.075343-67.003224-66.835104z" fill="#FEFDF8" /><path d="M812.933731 41.907582h-102.415283s-21.091343 6.021731-27.86197 82.837015c-6.755343 76.784716-18.81409 135.534806 28.626149 121.962985 47.440239-13.52597 73.040239-1.497791 94.116298-2.980298 21.091343-1.543642 53.46197 21.824955 41.433791-82.867583-12.058746-104.646687-13.556537-110.668418-33.898985-118.952119z" fill="#D8684A" /><path d="M707.339463 239.01994l17.316298-173.590925-12.807642 61.378866zM826.047045 238.607284L808.730746 65.016358l12.792358 61.394149zM923.281194 879.661851s-14.687522 31.270209-38.025552 39.569194c-23.33803 8.268418-40.302806 12.593672-40.302806 12.593671s30.139224-0.366806 45.759045-9.231283c15.604537-8.83391 33.501612-22.772537 32.569313-42.931582z" fill="#9E4A36" /><path d="M656.76609 727.116418c-0.534925 1.130985-2.43009-2.827463-4.600359 10.729075s-13.52597 95.44597-12.71594 96.30185c0.397373 0.412657 6.908179 4.355821 18.890508 9.231284l15.558686-112.960955c-6.342687-1.635343-16.674388-4.294687-17.132895-3.301254zM879.784119 737.845493c-2.154985-13.556537-4.050149-9.59809-4.600358-10.729075-0.458507-0.993433-10.790209 1.650627-17.132895 3.301254l15.558686 112.960955c11.982328-4.860179 18.508418-8.803343 18.875224-9.231284 0.825313-0.855881-10.530388-82.745313-12.700657-96.30185z" fill="#2E3436" /><path d="M937.846448 359.04191s32.768 12.991045 34.739582 25.98209 1.681194 14.397134 0 14.397134c-1.696478 0-36.451343-18.355582-36.451343-18.355582v-22.023642h1.711761z" fill="#D14C32" /><path d="M972.295642 402.386149l0.290388-2.949731-36.451343-18.355582v2.537074z" fill="#0D0E13" /><path d="M817.320119 854.046567h-107.306029s-58.75009-7.932179-50.833194 16.934209c7.916896 24.835821-7.916896 55.341851 73.422328 55.341851h62.127761c81.32394 0 65.520716-30.50603 73.422328-55.341851 7.916896-24.866388-50.833194-16.934209-50.833194-16.934209z" fill="#D8684A" /><path d="M770.063284 841.101373c-49.74806 0-94.498388-11.05003-125.539344-28.610866l-1.986865-0.397373c-3.178985 23.506149-2.842746 21.610985-2.399523 22.054209 0.81003 0.840597 27.831403 16.949493 75.684299 24.560717 10.545672 0.504358 50.81791 2.399522 50.81791 2.26197v-0.137552c0 0.137552 40.272239-1.772896 50.817911-2.261971 47.852896-7.626507 74.889552-23.720119 75.699582-24.576 0.259821-0.244537-0.64191-8.023881-2.048-19.07391-30.765851 16.154746-73.621015 26.180776-121.04597 26.180776z" fill="#202226" /><path d="M840.505313 503.578746c11.90591-36.864-7.916896-49.885612-30.139223-53.782925-17.560836-3.102567-61.210746-2.154985-75.470329-1.19212-25.645851 1.711761-53.88991 12.563104-40.211104 54.975045 23.292179 72.199642-1.23797 170.748179 0 182.333135 0.917015 8.543522 13.388418 22.894806 38.453492 26.471164 8.940896 1.283821 65.612418 1.161552 75.898269-1.344955 20.403582-4.982448 30.628299-17.438567 31.468895-25.141493 1.23797-11.569672-23.292179-110.118209 0-182.317851z" fill="#D8684A" /></svg>